# xmcd CD database file
#
# Track frame offsets:
#	187
#	28420
#	45427
#	62852
#	86457
#	101625
#	121645
#	141315
#
# Disc length: 2234 seconds
#
# Revision: 0
# Processed by: cddbd v1.5.1PL0 Copyright (c) Steve Scherf et al.
# Submitted via: CDex 1.51
#
DISCID=6808b808
DTITLE=Syl Johnson - Foxy Brown
DYEAR=1988
DGENRE=Blues
TTITLE0=Tripping On Your Love
TTITLE1=Love Baby
TTITLE2=Here We Go
TTITLE3=Gimmie Some
TTITLE4=Do You Know What Love Is
TTITLE5=Foxy Brown
TTITLE6=They Can't See Your Good Side
TTITLE7=Ms. Fine Brown Frame
EXTD=YEAR: 1988
EXTT0=
EXTT1=
EXTT2=
EXTT3=
EXTT4=
EXTT5=
EXTT6=
EXTT7=
PLAYORDER=
